# xmcd
#
# Track frame offsets:
# 150
# 14882
# 33463
# 49055
# 67101
# 84644
# 98519
# 111164
# 124916
# 140641
#
# Disc length: 2017 seconds
#
#
# Revision: 0
# Processed by: cddbd v1.5.2PL0 Copyright (c) Steve Scherf et al.
# Submitted via: FreeRIP 2.95 
#
DISCID=9007df0a
DTITLE=Dave Caley - It's A Long Way Back
DYEAR=2006
DGENRE=Country
TTITLE0=You Won't Be Lonely Long
TTITLE1=First Night Without You
TTITLE2=If That Was Me
TTITLE3=It's A Long Way Back
TTITLE4=Free For All Friday Night
TTITLE5=Just A Handshake
TTITLE6=Sorry Don't Work Anymore
TTITLE7=God's Grand Ole Opry
TTITLE8=I Don't Think I Will
TTITLE9=Thank God For Jesus
EXTD=
EXTT0=
EXTT1=
EXTT2=
EXTT3=
EXTT4=
EXTT5=
EXTT6=
EXTT7=
EXTT8=
EXTT9=
PLAYORDER=
